<svg width="360" height="467" viewBox="0 0 360 467" fill="none" xmlns="http://www.w3.org/2000/svg">
<path d="M185.047 466.039L354.708 405.006C357.883 403.864 360 400.852 360 397.478V8C360 3.58172 356.418 0 352 0H8C3.58172 0 0 3.58172 0 8V397.428C0 400.827 2.14731 403.855 5.35474 404.978L179.694 466.061C181.428 466.668 183.318 466.66 185.047 466.039Z" fill="url(#paint0_linear_36_100)"/>
<path d="M184.658 453.525L347.35 395.17C348.94 394.6 350 393.093 350 391.405V14C350 11.7909 348.209 10 346 10H14C11.7909 10 10 11.7909 10 14V391.368C10 393.075 11.0826 394.593 12.6958 395.149L182.003 453.541C182.864 453.838 183.801 453.832 184.658 453.525Z" fill="#022A1C"/>
<path d="M16.3502 391.474L183.128 448.772C183.558 448.919 184.027 448.916 184.455 448.762L264.397 420.005L343.677 391.486C344.471 391.2 345 390.447 345 389.604V17C345 15.8954 344.105 15 343 15H17C15.8954 15 15 15.8954 15 17V389.582C15 390.436 15.5424 391.196 16.3502 391.474Z" fill="url(#paint1_linear_36_100)"/>
<rect y="311" width="360" height="59" fill="#022A1C"/>
<path d="M66.2 355.48C63.3733 355.48 60.8533 354.853 58.64 353.6C56.4267 352.347 54.7067 350.613 53.48 348.4C52.2533 346.16 51.64 343.64 51.64 340.84C51.64 338.04 52.2533 335.533 53.48 333.32C54.7067 331.08 56.4267 329.333 58.64 328.08C60.8533 326.827 63.3733 326.2 66.2 326.2C68.44 326.2 70.4933 326.6 72.36 327.4C74.2267 328.173 75.7867 329.28 77.04 330.72C78.32 332.133 79.2133 333.787 79.72 335.68H72.8C72.2667 334.507 71.4133 333.587 70.24 332.92C69.0933 332.253 67.76 331.92 66.24 331.92C64.64 331.92 63.2133 332.307 61.96 333.08C60.7067 333.827 59.72 334.88 59 336.24C58.3067 337.573 57.96 339.107 57.96 340.84C57.96 342.573 58.3067 344.12 59 345.48C59.72 346.813 60.7067 347.867 61.96 348.64C63.2133 349.387 64.64 349.76 66.24 349.76C67.76 349.76 69.0933 349.427 70.24 348.76C71.4133 348.093 72.2667 347.173 72.8 346H79.72C79.2133 347.893 78.32 349.56 77.04 351C75.7867 352.413 74.2267 353.52 72.36 354.32C70.4933 355.093 68.44 355.48 66.2 355.48ZM89.6575 326.68H107.698V332.4H95.8975V337.72H107.178V343.32H95.8975V349.28H107.778V355H89.6575V326.68ZM118.314 326.68H130.074C133.354 326.68 135.874 327.44 137.634 328.96C139.42 330.453 140.314 332.627 140.314 335.48C140.314 337.8 139.7 339.667 138.474 341.08C137.247 342.493 135.474 343.4 133.154 343.8L141.714 355H134.274L126.714 344.36H124.554V355H118.314V326.68ZM129.794 339.12C132.567 339.12 133.954 338 133.954 335.76C133.954 333.52 132.567 332.4 129.794 332.4H124.554V339.12H129.794ZM156.768 332.4H148.608V326.68H171.128V332.4H163.008V355H156.768V332.4ZM180.783 326.68H187.023V355H180.783V326.68ZM198.423 326.68H215.623V332.4H204.663V338.52H215.303V344.16H204.663V355H198.423V326.68ZM225.751 326.68H231.991V355H225.751V326.68ZM243.392 326.68H261.432V332.4H249.632V337.72H260.912V343.32H249.632V349.28H261.512V355H243.392V326.68ZM272.048 326.68H281.688C284.621 326.68 287.208 327.28 289.448 328.48C291.715 329.68 293.461 331.347 294.688 333.48C295.941 335.613 296.568 338.053 296.568 340.8C296.568 343.573 295.941 346.04 294.688 348.2C293.461 350.333 291.715 352 289.448 353.2C287.208 354.4 284.621 355 281.688 355H272.048V326.68ZM281.408 349.28C284.101 349.28 286.235 348.547 287.808 347.08C289.408 345.613 290.208 343.52 290.208 340.8C290.208 338.107 289.408 336.04 287.808 334.6C286.235 333.133 284.101 332.4 281.408 332.4H278.288V349.28H281.408Z" fill="url(#paint2_linear_36_100)"/>
<rect x="15" y="15" width="330" height="55" fill="#022A1C"/>
<g clip-path="url(#clip0_36_100)">
<path d="M322.437 335.427L315.719 328.709L319.925 320.352L311.562 324.552L304.85 317.827L306.405 327.154L298.049 331.347L307.369 332.908L308.924 342.222L313.124 333.872L322.437 335.427Z" fill="url(#paint3_linear_36_100)"/>
<path d="M312.169 335.76L313.123 333.873L307.369 332.909L312.169 335.76Z" fill="#022A1C"/>
</g>
<path d="M43.2 250.6H53.55L65.5 286H57.25L54.5 277.25H42.05L39.2 286H31.3L43.2 250.6ZM52.35 270.6L48.35 257.95L44.25 270.6H52.35ZM71.7145 250.6H81.1145L95.4145 274.5V250.6H102.864V286H93.4645L79.1645 262.1V286H71.7145V250.6ZM120.905 250.6H131.255L143.205 286H134.955L132.205 277.25H119.755L116.905 286H109.005L120.905 250.6ZM130.055 270.6L126.055 257.95L121.955 270.6H130.055ZM149.42 250.6H157.22V278.85H171.27V286H149.42V250.6ZM181.231 271.8L169.031 250.6H177.781L185.231 264.15L192.881 250.6H201.131L189.031 271.6V286H181.231V271.8ZM215.348 257.75H205.148V250.6H233.298V257.75H223.148V286H215.348V257.75ZM240.367 250.6H248.167V286H240.367V250.6ZM274.268 286.6C270.734 286.6 267.584 285.817 264.818 284.25C262.051 282.683 259.901 280.517 258.368 277.75C256.834 274.95 256.068 271.8 256.068 268.3C256.068 264.8 256.834 261.667 258.368 258.9C259.901 256.1 262.051 253.917 264.818 252.35C267.584 250.783 270.734 250 274.268 250C277.068 250 279.634 250.5 281.968 251.5C284.301 252.467 286.251 253.85 287.818 255.65C289.418 257.417 290.534 259.483 291.168 261.85H282.518C281.851 260.383 280.784 259.233 279.318 258.4C277.884 257.567 276.218 257.15 274.318 257.15C272.318 257.15 270.534 257.633 268.968 258.6C267.401 259.533 266.168 260.85 265.268 262.55C264.401 264.217 263.968 266.133 263.968 268.3C263.968 270.467 264.401 272.4 265.268 274.1C266.168 275.767 267.401 277.083 268.968 278.05C270.534 278.983 272.318 279.45 274.318 279.45C276.218 279.45 277.884 279.033 279.318 278.2C280.784 277.367 281.851 276.217 282.518 274.75H291.168C290.534 277.117 289.418 279.2 287.818 281C286.251 282.767 284.301 284.15 281.968 285.15C279.634 286.117 277.068 286.6 274.268 286.6ZM311.189 286.6C308.456 286.6 306.023 286.1 303.889 285.1C301.789 284.1 300.089 282.7 298.789 280.9C297.489 279.1 296.673 277.017 296.339 274.65H304.689C305.023 276.317 305.773 277.617 306.939 278.55C308.106 279.45 309.523 279.9 311.189 279.9C312.756 279.9 314.089 279.517 315.189 278.75C316.289 277.95 316.839 276.917 316.839 275.65C316.839 273.783 315.473 272.533 312.739 271.9L305.789 270.2C303.056 269.533 300.923 268.383 299.389 266.75C297.889 265.117 297.139 263.05 297.139 260.55C297.139 258.35 297.706 256.467 298.839 254.9C299.973 253.3 301.539 252.083 303.539 251.25C305.539 250.417 307.789 250 310.289 250C314.156 250 317.306 250.933 319.739 252.8C322.206 254.667 323.789 257.233 324.489 260.5H316.039C315.673 259.3 314.989 258.367 313.989 257.7C312.989 257.033 311.773 256.7 310.339 256.7C308.873 256.7 307.623 257.033 306.589 257.7C305.556 258.333 305.039 259.2 305.039 260.3C305.039 261.167 305.356 261.85 305.989 262.35C306.623 262.817 307.589 263.217 308.889 263.55L315.039 265.05C318.106 265.817 320.489 267.033 322.189 268.7C323.889 270.333 324.739 272.567 324.739 275.4C324.739 277.7 324.156 279.7 322.989 281.4C321.823 283.067 320.206 284.35 318.139 285.25C316.073 286.15 313.756 286.6 311.189 286.6Z" fill="#022A1C"/>
<path d="M116 201C116 199.895 116.895 199 118 199H149C150.105 199 151 199.895 151 201V237C151 238.105 150.105 239 149 239H118C116.895 239 116 238.105 116 237V201Z" fill="#022A1C"/>
<path d="M165 165C165 163.895 165.895 163 167 163H198C199.105 163 200 163.895 200 165V236C200 237.105 199.105 238 198 238H167C165.895 238 165 237.105 165 236V165Z" fill="#022A1C"/>
<path d="M213 96C213 94.8954 213.895 94 215 94H246C247.105 94 248 94.8954 248 96V237C248 238.105 247.105 239 246 239H215C213.895 239 213 238.105 213 237V96Z" fill="#022A1C"/>
<path d="M146.35 29.75H136.15V22.6H164.3V29.75H154.15V58H146.35V29.75ZM171.748 32.3H178.648V35.75C180.248 33.05 182.815 31.7 186.348 31.7C189.148 31.7 191.381 32.5667 193.048 34.3C194.715 36.0333 195.548 38.4833 195.548 41.65V58H188.148V43.1C188.148 39.7333 186.765 38.05 183.998 38.05C182.431 38.05 181.231 38.5833 180.398 39.65C179.565 40.7167 179.148 42.2167 179.148 44.15V58H171.748V32.3ZM210.891 29.75H200.691V22.6H228.841V29.75H218.691V58H210.891V29.75Z" fill="url(#paint4_linear_36_100)"/>
<defs>
<linearGradient id="paint0_linear_36_100" x1="422.1" y1="463" x2="-45.0053" y2="459.76" gradientUnits="userSpaceOnUse">
<stop stop-color="#E3C512"/>
<stop offset="0.262019" stop-color="#B79A19"/>
<stop offset="0.771635" stop-color="#F1D950"/>
</linearGradient>
<linearGradient id="paint1_linear_36_100" x1="401.925" y1="446.881" x2="-26.2555" y2="443.963" gradientUnits="userSpaceOnUse">
<stop stop-color="#E3C512"/>
<stop offset="0.262019" stop-color="#B79A19"/>
<stop offset="0.771635" stop-color="#F1D950"/>
</linearGradient>
<linearGradient id="paint2_linear_36_100" x1="50" y1="341" x2="335" y2="341" gradientUnits="userSpaceOnUse">
<stop offset="0.03125" stop-color="#F1D950"/>
<stop offset="0.588942" stop-color="#E3CA43"/>
<stop offset="0.911058" stop-color="#CAAF2B"/>
</linearGradient>
<linearGradient id="paint3_linear_36_100" x1="319.922" y1="320.349" x2="303.486" y2="336.784" gradientUnits="userSpaceOnUse">
<stop offset="0.459135" stop-color="#C3A90F"/>
<stop offset="0.704327" stop-color="#E3C512"/>
</linearGradient>
<linearGradient id="paint4_linear_36_100" x1="271.819" y1="47" x2="107.031" y2="47.2857" gradientUnits="userSpaceOnUse">
<stop offset="0.199519" stop-color="#B4A02B"/>
<stop offset="0.382212" stop-color="#CEB83B"/>
<stop offset="0.737981" stop-color="#F1D950"/>
</linearGradient>
<clipPath id="clip0_36_100">
<rect width="25" height="25" fill="white" transform="translate(311.678 311) rotate(45)"/>
</clipPath>
</defs>
</svg>
