<svg width="380" height="467" viewBox="0 0 380 467" fill="none" xmlns="http://www.w3.org/2000/svg">
<rect width="380" height="467" fill="#022A1C"/>
<path d="M192.507 467L380 403.102V0H0V403.102L192.507 467Z" fill="url(#paint0_linear_0_1)"/>
<path d="M193.529 454L370 394.22V10H10V394.22L193.529 454Z" fill="#022A1C"/>
<path d="M15 391.01L194.023 449L279.511 420.005L365 391.01V15H15V391.01Z" fill="url(#paint1_linear_0_1)"/>
<rect y="312" width="380" height="59" fill="#022A1C"/>
<path d="M78.2 356.48C75.3733 356.48 72.8533 355.853 70.64 354.6C68.4267 353.347 66.7067 351.613 65.48 349.4C64.2533 347.16 63.64 344.64 63.64 341.84C63.64 339.04 64.2533 336.533 65.48 334.32C66.7067 332.08 68.4267 330.333 70.64 329.08C72.8533 327.827 75.3733 327.2 78.2 327.2C80.44 327.2 82.4933 327.6 84.36 328.4C86.2267 329.173 87.7867 330.28 89.04 331.72C90.32 333.133 91.2133 334.787 91.72 336.68H84.8C84.2667 335.507 83.4133 334.587 82.24 333.92C81.0933 333.253 79.76 332.92 78.24 332.92C76.64 332.92 75.2133 333.307 73.96 334.08C72.7067 334.827 71.72 335.88 71 337.24C70.3067 338.573 69.96 340.107 69.96 341.84C69.96 343.573 70.3067 345.12 71 346.48C71.72 347.813 72.7067 348.867 73.96 349.64C75.2133 350.387 76.64 350.76 78.24 350.76C79.76 350.76 81.0933 350.427 82.24 349.76C83.4133 349.093 84.2667 348.173 84.8 347H91.72C91.2133 348.893 90.32 350.56 89.04 352C87.7867 353.413 86.2267 354.52 84.36 355.32C82.4933 356.093 80.44 356.48 78.2 356.48ZM101.658 327.68H119.698V333.4H107.898V338.72H119.178V344.32H107.898V350.28H119.778V356H101.658V327.68ZM130.314 327.68H142.074C145.354 327.68 147.874 328.44 149.634 329.96C151.42 331.453 152.314 333.627 152.314 336.48C152.314 338.8 151.7 340.667 150.474 342.08C149.247 343.493 147.474 344.4 145.154 344.8L153.714 356H146.274L138.714 345.36H136.554V356H130.314V327.68ZM141.794 340.12C144.567 340.12 145.954 339 145.954 336.76C145.954 334.52 144.567 333.4 141.794 333.4H136.554V340.12H141.794ZM168.768 333.4H160.608V327.68H183.128V333.4H175.008V356H168.768V333.4ZM192.783 327.68H199.023V356H192.783V327.68ZM210.423 327.68H227.623V333.4H216.663V339.52H227.303V345.16H216.663V356H210.423V327.68ZM237.751 327.68H243.991V356H237.751V327.68ZM255.392 327.68H273.432V333.4H261.632V338.72H272.912V344.32H261.632V350.28H273.512V356H255.392V327.68ZM284.048 327.68H293.688C296.621 327.68 299.208 328.28 301.448 329.48C303.715 330.68 305.461 332.347 306.688 334.48C307.941 336.613 308.568 339.053 308.568 341.8C308.568 344.573 307.941 347.04 306.688 349.2C305.461 351.333 303.715 353 301.448 354.2C299.208 355.4 296.621 356 293.688 356H284.048V327.68ZM293.408 350.28C296.101 350.28 298.235 349.547 299.808 348.08C301.408 346.613 302.208 344.52 302.208 341.8C302.208 339.107 301.408 337.04 299.808 335.6C298.235 334.133 296.101 333.4 293.408 333.4H290.288V350.28H293.408Z" fill="url(#paint2_linear_0_1)"/>
<g clip-path="url(#clip0_0_1)">
<path d="M334.437 336.427L327.719 329.709L331.925 321.352L323.562 325.552L316.85 318.827L318.405 328.154L310.049 332.347L319.369 333.908L320.924 343.222L325.124 334.872L334.437 336.427Z" fill="#E3C512"/>
<path d="M324.169 336.76L325.123 334.873L319.369 333.909L324.169 336.76Z" fill="#126849"/>
</g>
<path d="M70.05 255.6H83.55L94.5 291H83.95L76.15 262.8H77.45L69.3 291H59.1L70.05 255.6ZM68.35 275.3H85.3V283.8H68.35V275.3ZM101.296 265.2H110.046V276H108.496C108.496 273.5 108.846 271.4 109.546 269.7C110.246 268 111.262 266.733 112.596 265.9C113.962 265.033 115.629 264.6 117.596 264.6C120.462 264.6 122.712 265.467 124.346 267.2C125.979 268.933 126.796 271.367 126.796 274.5V291H117.296V276.75C117.296 275.317 117.046 274.267 116.546 273.6C116.046 272.933 115.262 272.6 114.196 272.6C113.396 272.6 112.746 272.783 112.246 273.15C111.746 273.517 111.379 274.067 111.146 274.8C110.912 275.5 110.796 276.383 110.796 277.45V291H101.296V265.2ZM143.007 291.6C140.373 291.6 138.273 290.833 136.707 289.3C135.14 287.767 134.357 285.783 134.357 283.35C134.357 280.983 135.173 279.117 136.807 277.75C138.44 276.383 140.94 275.483 144.307 275.05L148.707 274.5C149.14 274.433 149.457 274.317 149.657 274.15C149.857 273.983 149.957 273.717 149.957 273.35C149.957 272.817 149.723 272.4 149.257 272.1C148.823 271.767 148.207 271.6 147.407 271.6C146.673 271.6 146.04 271.733 145.507 272C144.973 272.267 144.623 272.65 144.457 273.15H134.807C135.407 270.45 136.79 268.35 138.957 266.85C141.157 265.35 143.973 264.6 147.407 264.6C151.107 264.6 154.023 265.467 156.157 267.2C158.29 268.933 159.357 271.383 159.357 274.55V283.9C159.357 284.867 159.523 285.833 159.857 286.8L161.257 291H151.807L150.707 287.35V283.15L151.907 284.8C151.273 287 150.207 288.683 148.707 289.85C147.207 291.017 145.307 291.6 143.007 291.6ZM146.407 284.35C147.04 284.35 147.623 284.233 148.157 284C148.69 283.733 149.107 283.35 149.407 282.85C149.74 282.35 149.907 281.75 149.907 281.05V275.2L151.807 278.65C151.407 279.083 150.957 279.433 150.457 279.7C149.99 279.933 149.24 280.1 148.207 280.2L146.407 280.4C145.54 280.5 144.907 280.733 144.507 281.1C144.107 281.433 143.907 281.867 143.907 282.4C143.907 283 144.123 283.483 144.557 283.85C144.99 284.183 145.607 284.35 146.407 284.35ZM176.28 291.5C173.847 291.5 171.88 290.883 170.38 289.65C168.914 288.417 168.18 286.567 168.18 284.1V255.6H177.73V282.15C177.73 282.65 177.864 283.033 178.13 283.3C178.397 283.567 178.764 283.7 179.23 283.7C179.564 283.7 179.914 283.633 180.28 283.5V290.9C178.98 291.3 177.647 291.5 176.28 291.5ZM191.355 300.85C190.321 300.85 189.321 300.75 188.355 300.55V292.6C189.255 292.767 190.105 292.85 190.905 292.85C191.538 292.85 192.105 292.8 192.605 292.7C193.138 292.6 193.571 292.433 193.905 292.2L194.105 292.05C194.271 291.917 194.388 291.75 194.455 291.55C194.555 291.35 194.605 291.15 194.605 290.95C194.605 290.683 194.455 290.133 194.155 289.3L185.255 265.2H195.505L201.255 285.4H198.555L203.155 265.2H213.105L205.505 288.5C204.671 291.067 203.605 293.267 202.305 295.1C201.005 296.933 199.438 298.35 197.605 299.35C195.771 300.35 193.688 300.85 191.355 300.85ZM232.376 291.6C229.11 291.6 226.66 290.75 225.026 289.05C223.393 287.35 222.576 284.85 222.576 281.55V269.25L222.826 268.3V259.45L232.076 256.55V280.75C232.076 281.783 232.343 282.517 232.876 282.95C233.443 283.383 234.21 283.6 235.176 283.6C235.71 283.6 236.26 283.55 236.826 283.45C237.426 283.317 237.993 283.15 238.526 282.95V290.4C236.56 291.2 234.51 291.6 232.376 291.6ZM218.576 265.2H238.526V273.2H218.576V265.2ZM246.218 265.2H255.768V291H246.218V265.2ZM251.018 263.5C249.551 263.5 248.368 263.067 247.468 262.2C246.568 261.3 246.118 260.2 246.118 258.9C246.118 257.6 246.568 256.517 247.468 255.65C248.368 254.75 249.551 254.3 251.018 254.3C252.484 254.3 253.668 254.75 254.568 255.65C255.468 256.517 255.918 257.6 255.918 258.9C255.918 260.2 255.468 261.3 254.568 262.2C253.668 263.067 252.484 263.5 251.018 263.5ZM277.507 291.6C274.74 291.6 272.29 291.033 270.157 289.9C268.024 288.733 266.357 287.133 265.157 285.1C263.99 283.067 263.407 280.733 263.407 278.1C263.407 275.467 263.99 273.133 265.157 271.1C266.357 269.067 268.024 267.483 270.157 266.35C272.29 265.183 274.74 264.6 277.507 264.6C279.974 264.6 282.207 265.05 284.207 265.95C286.207 266.85 287.824 268.133 289.057 269.8C290.324 271.433 291.107 273.333 291.407 275.5H281.657C281.424 274.633 280.924 273.933 280.157 273.4C279.424 272.867 278.557 272.6 277.557 272.6C276.657 272.6 275.857 272.833 275.157 273.3C274.49 273.733 273.957 274.367 273.557 275.2C273.19 276.033 273.007 277 273.007 278.1C273.007 279.2 273.19 280.167 273.557 281C273.957 281.833 274.49 282.483 275.157 282.95C275.857 283.383 276.657 283.6 277.557 283.6C278.557 283.6 279.424 283.333 280.157 282.8C280.924 282.267 281.424 281.567 281.657 280.7H291.407C291.107 282.867 290.324 284.783 289.057 286.45C287.824 288.083 286.207 289.35 284.207 290.25C282.207 291.15 279.974 291.6 277.507 291.6ZM311.04 291.6C307.44 291.6 304.54 290.833 302.34 289.3C300.14 287.767 298.873 285.567 298.54 282.7H308.19C308.39 283.5 308.74 284.067 309.24 284.4C309.74 284.733 310.34 284.9 311.04 284.9C311.707 284.9 312.257 284.783 312.69 284.55C313.123 284.317 313.34 283.95 313.34 283.45C313.34 283.05 313.157 282.75 312.79 282.55C312.457 282.317 311.907 282.1 311.14 281.9L306.59 280.8C304.223 280.233 302.34 279.35 300.94 278.15C299.573 276.95 298.89 275.233 298.89 273C298.89 270.4 299.873 268.35 301.84 266.85C303.84 265.35 306.607 264.6 310.14 264.6C313.573 264.6 316.29 265.35 318.29 266.85C320.29 268.317 321.607 270.417 322.24 273.15H312.69C312.523 272.55 312.223 272.1 311.79 271.8C311.39 271.467 310.857 271.3 310.19 271.3C309.59 271.3 309.09 271.417 308.69 271.65C308.29 271.883 308.09 272.217 308.09 272.65C308.09 273.05 308.257 273.35 308.59 273.55C308.923 273.717 309.507 273.9 310.34 274.1L314.49 275.1C316.79 275.667 318.69 276.533 320.19 277.7C321.723 278.833 322.49 280.683 322.49 283.25C322.49 286.183 321.39 288.317 319.19 289.65C317.023 290.95 314.307 291.6 311.04 291.6Z" fill="#022A1C"/>
<path d="M153.959 55.6392C153.805 55.0118 153.562 54.4614 153.231 53.9879C152.899 53.5026 152.485 53.0942 151.988 52.7628C151.503 52.4195 150.934 52.165 150.283 51.9993C149.644 51.8217 148.94 51.733 148.17 51.733C146.513 51.733 145.099 52.1295 143.927 52.9226C142.767 53.7157 141.879 54.858 141.263 56.3494C140.66 57.8409 140.358 59.6402 140.358 61.7472C140.358 63.8778 140.648 65.7008 141.228 67.2159C141.808 68.7311 142.672 69.8911 143.82 70.696C144.969 71.5009 146.395 71.9034 148.099 71.9034C149.603 71.9034 150.852 71.6844 151.846 71.2464C152.852 70.8085 153.604 70.187 154.101 69.3821C154.598 68.5772 154.847 67.6302 154.847 66.5412L156.551 66.7188H148.241V59.6875H164.364V64.7301C164.364 68.0445 163.659 70.8795 162.251 73.2351C160.854 75.5788 158.924 77.3781 156.462 78.6328C154.012 79.8757 151.201 80.4972 148.028 80.4972C144.489 80.4972 141.382 79.7455 138.707 78.2422C136.031 76.7389 133.942 74.5964 132.439 71.8146C130.947 69.0329 130.202 65.7244 130.202 61.8892C130.202 58.8826 130.657 56.2192 131.569 53.8991C132.492 51.5791 133.771 49.62 135.404 48.022C137.038 46.4122 138.926 45.1989 141.068 44.3821C143.211 43.5535 145.507 43.1392 147.957 43.1392C150.112 43.1392 152.112 43.447 153.959 44.0625C155.817 44.6662 157.457 45.5303 158.877 46.6548C160.309 47.7675 161.464 49.0874 162.339 50.6143C163.215 52.1413 163.748 53.8163 163.938 55.6392H153.959ZM171.361 51.5909V43.6364H202.966V51.5909H192.029V80H182.299V51.5909H171.361ZM211.682 43.6364H223.969L232.42 64.233H232.846L241.298 43.6364H253.585V80H243.926V58.9773H243.642L235.545 79.7159H229.721L221.625 58.8352H221.341V80H211.682V43.6364Z" fill="#022A1C"/>
<rect x="112" y="188" width="38" height="57" fill="#022A1C"/>
<rect x="173" y="158" width="38" height="87" fill="#022A1C"/>
<rect x="234" y="99" width="38" height="146" fill="#022A1C"/>
<defs>
<linearGradient id="paint0_linear_0_1" x1="445.55" y1="463" x2="-47.5029" y2="459.39" gradientUnits="userSpaceOnUse">
<stop stop-color="#E3C512"/>
<stop offset="0.262019" stop-color="#B79A19"/>
<stop offset="0.771635" stop-color="#F1D950"/>
</linearGradient>
<linearGradient id="paint1_linear_0_1" x1="425.375" y1="446.881" x2="-28.7532" y2="443.598" gradientUnits="userSpaceOnUse">
<stop stop-color="#E3C512"/>
<stop offset="0.262019" stop-color="#B79A19"/>
<stop offset="0.771635" stop-color="#F1D950"/>
</linearGradient>
<linearGradient id="paint2_linear_0_1" x1="62" y1="342" x2="322" y2="342" gradientUnits="userSpaceOnUse">
<stop stop-color="#F1D950"/>
<stop offset="0.771635" stop-color="#CAAF2B"/>
<stop offset="0.992788" stop-color="#B79A19"/>
</linearGradient>
<clipPath id="clip0_0_1">
<rect width="25" height="25" fill="white" transform="translate(323.678 312) rotate(45)"/>
</clipPath>
</defs>
</svg>
