<svg width="360" height="467" viewBox="0 0 360 467" fill="none" xmlns="http://www.w3.org/2000/svg">
<path d="M182.375 467L360 403.102V0H0V403.102L182.375 467Z" fill="url(#paint0_linear_0_1)"/>
<path d="M183.333 454L350 394.22V10H10V394.22L183.333 454Z" fill="#022A1C"/>
<path d="M15 391.01L183.793 449L264.397 420.005L345 391.01V15H15V391.01Z" fill="url(#paint1_linear_0_1)"/>
<rect y="311" width="360" height="59" fill="#022A1C"/>
<path d="M66.2 355.48C63.3733 355.48 60.8533 354.853 58.64 353.6C56.4267 352.347 54.7067 350.613 53.48 348.4C52.2533 346.16 51.64 343.64 51.64 340.84C51.64 338.04 52.2533 335.533 53.48 333.32C54.7067 331.08 56.4267 329.333 58.64 328.08C60.8533 326.827 63.3733 326.2 66.2 326.2C68.44 326.2 70.4933 326.6 72.36 327.4C74.2267 328.173 75.7867 329.28 77.04 330.72C78.32 332.133 79.2133 333.787 79.72 335.68H72.8C72.2667 334.507 71.4133 333.587 70.24 332.92C69.0933 332.253 67.76 331.92 66.24 331.92C64.64 331.92 63.2133 332.307 61.96 333.08C60.7067 333.827 59.72 334.88 59 336.24C58.3067 337.573 57.96 339.107 57.96 340.84C57.96 342.573 58.3067 344.12 59 345.48C59.72 346.813 60.7067 347.867 61.96 348.64C63.2133 349.387 64.64 349.76 66.24 349.76C67.76 349.76 69.0933 349.427 70.24 348.76C71.4133 348.093 72.2667 347.173 72.8 346H79.72C79.2133 347.893 78.32 349.56 77.04 351C75.7867 352.413 74.2267 353.52 72.36 354.32C70.4933 355.093 68.44 355.48 66.2 355.48ZM89.6575 326.68H107.698V332.4H95.8975V337.72H107.178V343.32H95.8975V349.28H107.778V355H89.6575V326.68ZM118.314 326.68H130.074C133.354 326.68 135.874 327.44 137.634 328.96C139.42 330.453 140.314 332.627 140.314 335.48C140.314 337.8 139.7 339.667 138.474 341.08C137.247 342.493 135.474 343.4 133.154 343.8L141.714 355H134.274L126.714 344.36H124.554V355H118.314V326.68ZM129.794 339.12C132.567 339.12 133.954 338 133.954 335.76C133.954 333.52 132.567 332.4 129.794 332.4H124.554V339.12H129.794ZM156.768 332.4H148.608V326.68H171.128V332.4H163.008V355H156.768V332.4ZM180.783 326.68H187.023V355H180.783V326.68ZM198.423 326.68H215.623V332.4H204.663V338.52H215.303V344.16H204.663V355H198.423V326.68ZM225.751 326.68H231.991V355H225.751V326.68ZM243.392 326.68H261.432V332.4H249.632V337.72H260.912V343.32H249.632V349.28H261.512V355H243.392V326.68ZM272.048 326.68H281.688C284.621 326.68 287.208 327.28 289.448 328.48C291.715 329.68 293.461 331.347 294.688 333.48C295.941 335.613 296.568 338.053 296.568 340.8C296.568 343.573 295.941 346.04 294.688 348.2C293.461 350.333 291.715 352 289.448 353.2C287.208 354.4 284.621 355 281.688 355H272.048V326.68ZM281.408 349.28C284.101 349.28 286.235 348.547 287.808 347.08C289.408 345.613 290.208 343.52 290.208 340.8C290.208 338.107 289.408 336.04 287.808 334.6C286.235 333.133 284.101 332.4 281.408 332.4H278.288V349.28H281.408Z" fill="url(#paint2_linear_0_1)"/>
<g clip-path="url(#clip0_0_1)">
<path d="M322.437 335.427L315.719 328.709L319.925 320.352L311.562 324.552L304.85 317.827L306.405 327.154L298.049 331.347L307.369 332.908L308.924 342.222L313.124 333.872L322.437 335.427Z" fill="#E3C512"/>
<path d="M312.169 335.76L313.123 333.873L307.369 332.909L312.169 335.76Z" fill="#126849"/>
</g>
<path d="M58.05 254.6H71.55L82.5 290H71.95L64.15 261.8H65.45L57.3 290H47.1L58.05 254.6ZM56.35 274.3H73.3V282.8H56.35V274.3ZM89.2957 264.2H98.0457V275H96.4957C96.4957 272.5 96.8457 270.4 97.5457 268.7C98.2457 267 99.2624 265.733 100.596 264.9C101.962 264.033 103.629 263.6 105.596 263.6C108.462 263.6 110.712 264.467 112.346 266.2C113.979 267.933 114.796 270.367 114.796 273.5V290H105.296V275.75C105.296 274.317 105.046 273.267 104.546 272.6C104.046 271.933 103.262 271.6 102.196 271.6C101.396 271.6 100.746 271.783 100.246 272.15C99.7457 272.517 99.379 273.067 99.1457 273.8C98.9124 274.5 98.7957 275.383 98.7957 276.45V290H89.2957V264.2ZM131.007 290.6C128.373 290.6 126.273 289.833 124.707 288.3C123.14 286.767 122.357 284.783 122.357 282.35C122.357 279.983 123.173 278.117 124.807 276.75C126.44 275.383 128.94 274.483 132.307 274.05L136.707 273.5C137.14 273.433 137.457 273.317 137.657 273.15C137.857 272.983 137.957 272.717 137.957 272.35C137.957 271.817 137.723 271.4 137.257 271.1C136.823 270.767 136.207 270.6 135.407 270.6C134.673 270.6 134.04 270.733 133.507 271C132.973 271.267 132.623 271.65 132.457 272.15H122.807C123.407 269.45 124.79 267.35 126.957 265.85C129.157 264.35 131.973 263.6 135.407 263.6C139.107 263.6 142.023 264.467 144.157 266.2C146.29 267.933 147.357 270.383 147.357 273.55V282.9C147.357 283.867 147.523 284.833 147.857 285.8L149.257 290H139.807L138.707 286.35V282.15L139.907 283.8C139.273 286 138.207 287.683 136.707 288.85C135.207 290.017 133.307 290.6 131.007 290.6ZM134.407 283.35C135.04 283.35 135.623 283.233 136.157 283C136.69 282.733 137.107 282.35 137.407 281.85C137.74 281.35 137.907 280.75 137.907 280.05V274.2L139.807 277.65C139.407 278.083 138.957 278.433 138.457 278.7C137.99 278.933 137.24 279.1 136.207 279.2L134.407 279.4C133.54 279.5 132.907 279.733 132.507 280.1C132.107 280.433 131.907 280.867 131.907 281.4C131.907 282 132.123 282.483 132.557 282.85C132.99 283.183 133.607 283.35 134.407 283.35ZM164.28 290.5C161.847 290.5 159.88 289.883 158.38 288.65C156.914 287.417 156.18 285.567 156.18 283.1V254.6H165.73V281.15C165.73 281.65 165.864 282.033 166.13 282.3C166.397 282.567 166.764 282.7 167.23 282.7C167.564 282.7 167.914 282.633 168.28 282.5V289.9C166.98 290.3 165.647 290.5 164.28 290.5ZM179.355 299.85C178.321 299.85 177.321 299.75 176.355 299.55V291.6C177.255 291.767 178.105 291.85 178.905 291.85C179.538 291.85 180.105 291.8 180.605 291.7C181.138 291.6 181.571 291.433 181.905 291.2L182.105 291.05C182.271 290.917 182.388 290.75 182.455 290.55C182.555 290.35 182.605 290.15 182.605 289.95C182.605 289.683 182.455 289.133 182.155 288.3L173.255 264.2H183.505L189.255 284.4H186.555L191.155 264.2H201.105L193.505 287.5C192.671 290.067 191.605 292.267 190.305 294.1C189.005 295.933 187.438 297.35 185.605 298.35C183.771 299.35 181.688 299.85 179.355 299.85ZM220.376 290.6C217.11 290.6 214.66 289.75 213.026 288.05C211.393 286.35 210.576 283.85 210.576 280.55V268.25L210.826 267.3V258.45L220.076 255.55V279.75C220.076 280.783 220.343 281.517 220.876 281.95C221.443 282.383 222.21 282.6 223.176 282.6C223.71 282.6 224.26 282.55 224.826 282.45C225.426 282.317 225.993 282.15 226.526 281.95V289.4C224.56 290.2 222.51 290.6 220.376 290.6ZM206.576 264.2H226.526V272.2H206.576V264.2ZM234.218 264.2H243.768V290H234.218V264.2ZM239.018 262.5C237.551 262.5 236.368 262.067 235.468 261.2C234.568 260.3 234.118 259.2 234.118 257.9C234.118 256.6 234.568 255.517 235.468 254.65C236.368 253.75 237.551 253.3 239.018 253.3C240.484 253.3 241.668 253.75 242.568 254.65C243.468 255.517 243.918 256.6 243.918 257.9C243.918 259.2 243.468 260.3 242.568 261.2C241.668 262.067 240.484 262.5 239.018 262.5ZM265.507 290.6C262.74 290.6 260.29 290.033 258.157 288.9C256.024 287.733 254.357 286.133 253.157 284.1C251.99 282.067 251.407 279.733 251.407 277.1C251.407 274.467 251.99 272.133 253.157 270.1C254.357 268.067 256.024 266.483 258.157 265.35C260.29 264.183 262.74 263.6 265.507 263.6C267.974 263.6 270.207 264.05 272.207 264.95C274.207 265.85 275.824 267.133 277.057 268.8C278.324 270.433 279.107 272.333 279.407 274.5H269.657C269.424 273.633 268.924 272.933 268.157 272.4C267.424 271.867 266.557 271.6 265.557 271.6C264.657 271.6 263.857 271.833 263.157 272.3C262.49 272.733 261.957 273.367 261.557 274.2C261.19 275.033 261.007 276 261.007 277.1C261.007 278.2 261.19 279.167 261.557 280C261.957 280.833 262.49 281.483 263.157 281.95C263.857 282.383 264.657 282.6 265.557 282.6C266.557 282.6 267.424 282.333 268.157 281.8C268.924 281.267 269.424 280.567 269.657 279.7H279.407C279.107 281.867 278.324 283.783 277.057 285.45C275.824 287.083 274.207 288.35 272.207 289.25C270.207 290.15 267.974 290.6 265.507 290.6ZM299.04 290.6C295.44 290.6 292.54 289.833 290.34 288.3C288.14 286.767 286.873 284.567 286.54 281.7H296.19C296.39 282.5 296.74 283.067 297.24 283.4C297.74 283.733 298.34 283.9 299.04 283.9C299.707 283.9 300.257 283.783 300.69 283.55C301.123 283.317 301.34 282.95 301.34 282.45C301.34 282.05 301.157 281.75 300.79 281.55C300.457 281.317 299.907 281.1 299.14 280.9L294.59 279.8C292.223 279.233 290.34 278.35 288.94 277.15C287.573 275.95 286.89 274.233 286.89 272C286.89 269.4 287.873 267.35 289.84 265.85C291.84 264.35 294.607 263.6 298.14 263.6C301.573 263.6 304.29 264.35 306.29 265.85C308.29 267.317 309.607 269.417 310.24 272.15H300.69C300.523 271.55 300.223 271.1 299.79 270.8C299.39 270.467 298.857 270.3 298.19 270.3C297.59 270.3 297.09 270.417 296.69 270.65C296.29 270.883 296.09 271.217 296.09 271.65C296.09 272.05 296.257 272.35 296.59 272.55C296.923 272.717 297.507 272.9 298.34 273.1L302.49 274.1C304.79 274.667 306.69 275.533 308.19 276.7C309.723 277.833 310.49 279.683 310.49 282.25C310.49 285.183 309.39 287.317 307.19 288.65C305.023 289.95 302.307 290.6 299.04 290.6Z" fill="#022A1C"/>
<path d="M67.3438 78V41.6364H83.0398C85.7386 41.6364 88.1001 42.169 90.1243 43.2344C92.1484 44.2997 93.7228 45.7971 94.8473 47.7266C95.9718 49.656 96.5341 51.911 96.5341 54.4915C96.5341 57.0956 95.9541 59.3506 94.794 61.2564C93.6458 63.1622 92.0301 64.63 89.9467 65.6598C87.8752 66.6896 85.4545 67.2045 82.6847 67.2045H73.3097V59.5341H80.696C81.8561 59.5341 82.8445 59.3329 83.6612 58.9304C84.4898 58.5161 85.1231 57.9302 85.5611 57.1726C86.0109 56.415 86.2358 55.5213 86.2358 54.4915C86.2358 53.4498 86.0109 52.562 85.5611 51.8281C85.1231 51.0824 84.4898 50.5142 83.6612 50.1236C82.8445 49.7211 81.8561 49.5199 80.696 49.5199H77.2159V78H67.3438ZM105.298 78V50.7273H114.815V55.9119H115.099C115.597 53.9943 116.384 52.5916 117.461 51.7038C118.55 50.8161 119.822 50.3722 121.278 50.3722C121.705 50.3722 122.125 50.4077 122.539 50.4787C122.965 50.5379 123.374 50.6267 123.764 50.745V59.108C123.279 58.9422 122.681 58.8179 121.971 58.7351C121.261 58.6522 120.651 58.6108 120.142 58.6108C119.183 58.6108 118.319 58.8298 117.55 59.2678C116.792 59.6939 116.194 60.2976 115.756 61.0788C115.318 61.8482 115.099 62.7538 115.099 63.7955V78H105.298ZM143.555 78.4972C140.595 78.4972 138.062 77.9112 135.955 76.7393C133.848 75.5556 132.232 73.9103 131.108 71.8033C129.983 69.6844 129.421 67.2282 129.421 64.4347C129.421 61.6411 129.983 59.1908 131.108 57.0838C132.232 54.965 133.848 53.3196 135.955 52.1477C138.062 50.964 140.595 50.3722 143.555 50.3722C146.514 50.3722 149.047 50.964 151.154 52.1477C153.261 53.3196 154.877 54.965 156.001 57.0838C157.126 59.1908 157.688 61.6411 157.688 64.4347C157.688 67.2282 157.126 69.6844 156.001 71.8033C154.877 73.9103 153.261 75.5556 151.154 76.7393C149.047 77.9112 146.514 78.4972 143.555 78.4972ZM143.626 71.2528C144.454 71.2528 145.17 70.9747 145.774 70.4183C146.378 69.862 146.845 69.0689 147.177 68.0391C147.508 67.0092 147.674 65.7841 147.674 64.3636C147.674 62.9313 147.508 61.7062 147.177 60.6882C146.845 59.6584 146.378 58.8653 145.774 58.3089C145.17 57.7526 144.454 57.4744 143.626 57.4744C142.75 57.4744 141.998 57.7526 141.371 58.3089C140.743 58.8653 140.264 59.6584 139.933 60.6882C139.601 61.7062 139.435 62.9313 139.435 64.3636C139.435 65.7841 139.601 67.0092 139.933 68.0391C140.264 69.0689 140.743 69.862 141.371 70.4183C141.998 70.9747 142.75 71.2528 143.626 71.2528ZM176.538 78.3551C174.596 78.3551 172.809 77.8461 171.175 76.8281C169.554 75.8101 168.252 74.2654 167.269 72.1939C166.299 70.1224 165.813 67.5123 165.813 64.3636C165.813 61.0729 166.322 58.3977 167.34 56.3381C168.37 54.2784 169.696 52.7692 171.317 51.8104C172.951 50.8516 174.667 50.3722 176.467 50.3722C177.816 50.3722 179 50.6089 180.018 51.0824C181.036 51.544 181.888 52.1655 182.575 52.9467C183.261 53.7161 183.782 54.5625 184.137 55.4858H184.279V41.6364H194.08V78H184.35V73.5256H184.137C183.758 74.4489 183.214 75.2775 182.504 76.0114C181.805 76.7334 180.953 77.3075 179.947 77.7337C178.952 78.148 177.816 78.3551 176.538 78.3551ZM180.16 70.8267C181.059 70.8267 181.829 70.5663 182.468 70.0455C183.119 69.5128 183.616 68.767 183.96 67.8082C184.315 66.8376 184.492 65.6894 184.492 64.3636C184.492 63.0142 184.315 61.8601 183.96 60.9013C183.616 59.9306 183.119 59.1908 182.468 58.6818C181.829 58.161 181.059 57.9006 180.16 57.9006C179.26 57.9006 178.491 58.161 177.852 58.6818C177.224 59.1908 176.739 59.9306 176.396 60.9013C176.064 61.8601 175.898 63.0142 175.898 64.3636C175.898 65.7131 176.064 66.8731 176.396 67.8438C176.739 68.8026 177.224 69.5424 177.852 70.0632C178.491 70.5722 179.26 70.8267 180.16 70.8267ZM221.577 66.0682V50.7273H231.378V78H222.074V72.8153H221.79C221.198 74.5554 220.162 75.9167 218.683 76.8991C217.203 77.8698 215.445 78.3551 213.409 78.3551C211.503 78.3551 209.834 77.9171 208.402 77.0412C206.982 76.1652 205.875 74.9579 205.082 73.419C204.3 71.8802 203.904 70.1165 203.892 68.1278V50.7273H213.693V66.0682C213.705 67.4176 214.048 68.477 214.723 69.2464C215.41 70.0159 216.368 70.4006 217.599 70.4006C218.416 70.4006 219.121 70.2289 219.712 69.8857C220.316 69.5305 220.778 69.0334 221.097 68.3942C221.429 67.7431 221.589 66.9678 221.577 66.0682ZM254.502 78.4972C251.543 78.4972 249.01 77.9112 246.903 76.7393C244.796 75.5556 243.18 73.9103 242.055 71.8033C240.931 69.6844 240.368 67.2282 240.368 64.4347C240.368 61.6411 240.931 59.1908 242.055 57.0838C243.18 54.965 244.796 53.3196 246.903 52.1477C249.01 50.964 251.543 50.3722 254.502 50.3722C257.177 50.3722 259.491 50.8575 261.444 51.8281C263.409 52.7869 264.93 54.1482 266.008 55.9119C267.085 57.6638 267.629 59.7235 267.641 62.0909H258.55C258.42 60.6586 258.006 59.5696 257.307 58.8239C256.621 58.0663 255.733 57.6875 254.644 57.6875C253.792 57.6875 253.046 57.9361 252.407 58.4332C251.768 58.9186 251.27 59.6584 250.915 60.6527C250.56 61.6352 250.383 62.8722 250.383 64.3636C250.383 65.8551 250.56 67.098 250.915 68.0923C251.27 69.0748 251.768 69.8146 252.407 70.3118C253.046 70.7971 253.792 71.0398 254.644 71.0398C255.366 71.0398 256.005 70.8741 256.562 70.5426C257.118 70.1993 257.568 69.7022 257.911 69.0511C258.266 68.3883 258.479 67.5833 258.55 66.6364H267.641C267.606 69.0393 267.055 71.1345 265.99 72.9219C264.925 74.6974 263.415 76.0705 261.462 77.0412C259.521 78.0118 257.201 78.4972 254.502 78.4972ZM292.949 50.7273V57.8295H274.98V50.7273H292.949ZM278.461 44.1932H288.262V69.2287C288.262 69.6075 288.327 69.9271 288.457 70.1875C288.587 70.4361 288.788 70.6255 289.061 70.7557C289.333 70.8741 289.682 70.9332 290.108 70.9332C290.404 70.9332 290.748 70.8977 291.138 70.8267C291.541 70.7557 291.837 70.6965 292.026 70.6491L293.446 77.5384C293.008 77.6686 292.381 77.8284 291.564 78.0178C290.759 78.2071 289.801 78.3314 288.688 78.3906C286.439 78.509 284.551 78.2782 283.024 77.6982C281.497 77.1063 280.349 76.1771 279.579 74.9105C278.81 73.6439 278.437 72.0578 278.461 70.152V44.1932Z" fill="#022A1C"/>
<rect x="100" y="187" width="38" height="57" fill="#022A1C"/>
<rect x="161" y="157" width="38" height="87" fill="#022A1C"/>
<rect x="222" y="98" width="38" height="146" fill="#022A1C"/>
<defs>
<linearGradient id="paint0_linear_0_1" x1="422.1" y1="463" x2="-45.0053" y2="459.76" gradientUnits="userSpaceOnUse">
<stop stop-color="#E3C512"/>
<stop offset="0.262019" stop-color="#B79A19"/>
<stop offset="0.771635" stop-color="#F1D950"/>
</linearGradient>
<linearGradient id="paint1_linear_0_1" x1="401.925" y1="446.881" x2="-26.2555" y2="443.963" gradientUnits="userSpaceOnUse">
<stop stop-color="#E3C512"/>
<stop offset="0.262019" stop-color="#B79A19"/>
<stop offset="0.771635" stop-color="#F1D950"/>
</linearGradient>
<linearGradient id="paint2_linear_0_1" x1="50" y1="341" x2="310" y2="341" gradientUnits="userSpaceOnUse">
<stop stop-color="#F1D950"/>
<stop offset="0.771635" stop-color="#CAAF2B"/>
<stop offset="0.992788" stop-color="#B79A19"/>
</linearGradient>
<clipPath id="clip0_0_1">
<rect width="25" height="25" fill="white" transform="translate(311.678 311) rotate(45)"/>
</clipPath>
</defs>
</svg>
