<svg width="360" height="467" viewBox="0 0 360 467" fill="none" xmlns="http://www.w3.org/2000/svg">
<path d="M185.047 466.039L354.708 405.006C357.883 403.864 360 400.852 360 397.478V8C360 3.58172 356.418 0 352 0H8C3.58172 0 0 3.58172 0 8V397.428C0 400.827 2.14731 403.855 5.35474 404.978L179.694 466.061C181.428 466.668 183.318 466.66 185.047 466.039Z" fill="url(#paint0_linear_18_13)"/>
<path d="M184.658 453.525L347.35 395.17C348.94 394.6 350 393.093 350 391.405V14C350 11.7909 348.209 10 346 10H14C11.7909 10 10 11.7909 10 14V391.368C10 393.075 11.0826 394.593 12.6958 395.149L182.003 453.541C182.864 453.838 183.801 453.832 184.658 453.525Z" fill="url(#paint1_linear_18_13)"/>
<path d="M16.3502 391.474L183.128 448.772C183.558 448.919 184.027 448.916 184.455 448.762L264.397 420.005L343.677 391.486C344.471 391.2 345 390.447 345 389.604V17C345 15.8954 344.105 15 343 15H17C15.8954 15 15 15.8954 15 17V389.582C15 390.436 15.5424 391.196 16.3502 391.474Z" fill="url(#paint2_linear_18_13)"/>
<rect y="311" width="360" height="59" fill="url(#paint3_linear_18_13)"/>
<path d="M66.2 355.48C63.3733 355.48 60.8533 354.853 58.64 353.6C56.4267 352.347 54.7067 350.613 53.48 348.4C52.2533 346.16 51.64 343.64 51.64 340.84C51.64 338.04 52.2533 335.533 53.48 333.32C54.7067 331.08 56.4267 329.333 58.64 328.08C60.8533 326.827 63.3733 326.2 66.2 326.2C68.44 326.2 70.4933 326.6 72.36 327.4C74.2267 328.173 75.7867 329.28 77.04 330.72C78.32 332.133 79.2133 333.787 79.72 335.68H72.8C72.2667 334.507 71.4133 333.587 70.24 332.92C69.0933 332.253 67.76 331.92 66.24 331.92C64.64 331.92 63.2133 332.307 61.96 333.08C60.7067 333.827 59.72 334.88 59 336.24C58.3067 337.573 57.96 339.107 57.96 340.84C57.96 342.573 58.3067 344.12 59 345.48C59.72 346.813 60.7067 347.867 61.96 348.64C63.2133 349.387 64.64 349.76 66.24 349.76C67.76 349.76 69.0933 349.427 70.24 348.76C71.4133 348.093 72.2667 347.173 72.8 346H79.72C79.2133 347.893 78.32 349.56 77.04 351C75.7867 352.413 74.2267 353.52 72.36 354.32C70.4933 355.093 68.44 355.48 66.2 355.48ZM89.6575 326.68H107.698V332.4H95.8975V337.72H107.178V343.32H95.8975V349.28H107.778V355H89.6575V326.68ZM118.314 326.68H130.074C133.354 326.68 135.874 327.44 137.634 328.96C139.42 330.453 140.314 332.627 140.314 335.48C140.314 337.8 139.7 339.667 138.474 341.08C137.247 342.493 135.474 343.4 133.154 343.8L141.714 355H134.274L126.714 344.36H124.554V355H118.314V326.68ZM129.794 339.12C132.567 339.12 133.954 338 133.954 335.76C133.954 333.52 132.567 332.4 129.794 332.4H124.554V339.12H129.794ZM156.768 332.4H148.608V326.68H171.128V332.4H163.008V355H156.768V332.4ZM180.783 326.68H187.023V355H180.783V326.68ZM198.423 326.68H215.623V332.4H204.663V338.52H215.303V344.16H204.663V355H198.423V326.68ZM225.751 326.68H231.991V355H225.751V326.68ZM243.392 326.68H261.432V332.4H249.632V337.72H260.912V343.32H249.632V349.28H261.512V355H243.392V326.68ZM272.048 326.68H281.688C284.621 326.68 287.208 327.28 289.448 328.48C291.715 329.68 293.461 331.347 294.688 333.48C295.941 335.613 296.568 338.053 296.568 340.8C296.568 343.573 295.941 346.04 294.688 348.2C293.461 350.333 291.715 352 289.448 353.2C287.208 354.4 284.621 355 281.688 355H272.048V326.68ZM281.408 349.28C284.101 349.28 286.235 348.547 287.808 347.08C289.408 345.613 290.208 343.52 290.208 340.8C290.208 338.107 289.408 336.04 287.808 334.6C286.235 333.133 284.101 332.4 281.408 332.4H278.288V349.28H281.408Z" fill="url(#paint4_linear_18_13)"/>
<g clip-path="url(#clip0_18_13)">
<path d="M322.437 335.427L315.719 328.709L319.925 320.352L311.562 324.552L304.85 317.827L306.405 327.154L298.049 331.347L307.369 332.908L308.924 342.222L313.124 333.872L322.437 335.427Z" fill="#E3C512"/>
<path d="M312.169 335.76L313.123 333.873L307.369 332.909L312.169 335.76Z" fill="#126849"/>
</g>
<path d="M58.05 254.6H71.55L82.5 290H71.95L64.15 261.8H65.45L57.3 290H47.1L58.05 254.6ZM56.35 274.3H73.3V282.8H56.35V274.3ZM89.2957 264.2H98.0457V275H96.4957C96.4957 272.5 96.8457 270.4 97.5457 268.7C98.2457 267 99.2624 265.733 100.596 264.9C101.962 264.033 103.629 263.6 105.596 263.6C108.462 263.6 110.712 264.467 112.346 266.2C113.979 267.933 114.796 270.367 114.796 273.5V290H105.296V275.75C105.296 274.317 105.046 273.267 104.546 272.6C104.046 271.933 103.262 271.6 102.196 271.6C101.396 271.6 100.746 271.783 100.246 272.15C99.7457 272.517 99.379 273.067 99.1457 273.8C98.9124 274.5 98.7957 275.383 98.7957 276.45V290H89.2957V264.2ZM131.007 290.6C128.373 290.6 126.273 289.833 124.707 288.3C123.14 286.767 122.357 284.783 122.357 282.35C122.357 279.983 123.173 278.117 124.807 276.75C126.44 275.383 128.94 274.483 132.307 274.05L136.707 273.5C137.14 273.433 137.457 273.317 137.657 273.15C137.857 272.983 137.957 272.717 137.957 272.35C137.957 271.817 137.723 271.4 137.257 271.1C136.823 270.767 136.207 270.6 135.407 270.6C134.673 270.6 134.04 270.733 133.507 271C132.973 271.267 132.623 271.65 132.457 272.15H122.807C123.407 269.45 124.79 267.35 126.957 265.85C129.157 264.35 131.973 263.6 135.407 263.6C139.107 263.6 142.023 264.467 144.157 266.2C146.29 267.933 147.357 270.383 147.357 273.55V282.9C147.357 283.867 147.523 284.833 147.857 285.8L149.257 290H139.807L138.707 286.35V282.15L139.907 283.8C139.273 286 138.207 287.683 136.707 288.85C135.207 290.017 133.307 290.6 131.007 290.6ZM134.407 283.35C135.04 283.35 135.623 283.233 136.157 283C136.69 282.733 137.107 282.35 137.407 281.85C137.74 281.35 137.907 280.75 137.907 280.05V274.2L139.807 277.65C139.407 278.083 138.957 278.433 138.457 278.7C137.99 278.933 137.24 279.1 136.207 279.2L134.407 279.4C133.54 279.5 132.907 279.733 132.507 280.1C132.107 280.433 131.907 280.867 131.907 281.4C131.907 282 132.123 282.483 132.557 282.85C132.99 283.183 133.607 283.35 134.407 283.35ZM164.28 290.5C161.847 290.5 159.88 289.883 158.38 288.65C156.914 287.417 156.18 285.567 156.18 283.1V254.6H165.73V281.15C165.73 281.65 165.864 282.033 166.13 282.3C166.397 282.567 166.764 282.7 167.23 282.7C167.564 282.7 167.914 282.633 168.28 282.5V289.9C166.98 290.3 165.647 290.5 164.28 290.5ZM179.355 299.85C178.321 299.85 177.321 299.75 176.355 299.55V291.6C177.255 291.767 178.105 291.85 178.905 291.85C179.538 291.85 180.105 291.8 180.605 291.7C181.138 291.6 181.571 291.433 181.905 291.2L182.105 291.05C182.271 290.917 182.388 290.75 182.455 290.55C182.555 290.35 182.605 290.15 182.605 289.95C182.605 289.683 182.455 289.133 182.155 288.3L173.255 264.2H183.505L189.255 284.4H186.555L191.155 264.2H201.105L193.505 287.5C192.671 290.067 191.605 292.267 190.305 294.1C189.005 295.933 187.438 297.35 185.605 298.35C183.771 299.35 181.688 299.85 179.355 299.85ZM220.376 290.6C217.11 290.6 214.66 289.75 213.026 288.05C211.393 286.35 210.576 283.85 210.576 280.55V268.25L210.826 267.3V258.45L220.076 255.55V279.75C220.076 280.783 220.343 281.517 220.876 281.95C221.443 282.383 222.21 282.6 223.176 282.6C223.71 282.6 224.26 282.55 224.826 282.45C225.426 282.317 225.993 282.15 226.526 281.95V289.4C224.56 290.2 222.51 290.6 220.376 290.6ZM206.576 264.2H226.526V272.2H206.576V264.2ZM234.218 264.2H243.768V290H234.218V264.2ZM239.018 262.5C237.551 262.5 236.368 262.067 235.468 261.2C234.568 260.3 234.118 259.2 234.118 257.9C234.118 256.6 234.568 255.517 235.468 254.65C236.368 253.75 237.551 253.3 239.018 253.3C240.484 253.3 241.668 253.75 242.568 254.65C243.468 255.517 243.918 256.6 243.918 257.9C243.918 259.2 243.468 260.3 242.568 261.2C241.668 262.067 240.484 262.5 239.018 262.5ZM265.507 290.6C262.74 290.6 260.29 290.033 258.157 288.9C256.024 287.733 254.357 286.133 253.157 284.1C251.99 282.067 251.407 279.733 251.407 277.1C251.407 274.467 251.99 272.133 253.157 270.1C254.357 268.067 256.024 266.483 258.157 265.35C260.29 264.183 262.74 263.6 265.507 263.6C267.974 263.6 270.207 264.05 272.207 264.95C274.207 265.85 275.824 267.133 277.057 268.8C278.324 270.433 279.107 272.333 279.407 274.5H269.657C269.424 273.633 268.924 272.933 268.157 272.4C267.424 271.867 266.557 271.6 265.557 271.6C264.657 271.6 263.857 271.833 263.157 272.3C262.49 272.733 261.957 273.367 261.557 274.2C261.19 275.033 261.007 276 261.007 277.1C261.007 278.2 261.19 279.167 261.557 280C261.957 280.833 262.49 281.483 263.157 281.95C263.857 282.383 264.657 282.6 265.557 282.6C266.557 282.6 267.424 282.333 268.157 281.8C268.924 281.267 269.424 280.567 269.657 279.7H279.407C279.107 281.867 278.324 283.783 277.057 285.45C275.824 287.083 274.207 288.35 272.207 289.25C270.207 290.15 267.974 290.6 265.507 290.6ZM299.04 290.6C295.44 290.6 292.54 289.833 290.34 288.3C288.14 286.767 286.873 284.567 286.54 281.7H296.19C296.39 282.5 296.74 283.067 297.24 283.4C297.74 283.733 298.34 283.9 299.04 283.9C299.707 283.9 300.257 283.783 300.69 283.55C301.123 283.317 301.34 282.95 301.34 282.45C301.34 282.05 301.157 281.75 300.79 281.55C300.457 281.317 299.907 281.1 299.14 280.9L294.59 279.8C292.223 279.233 290.34 278.35 288.94 277.15C287.573 275.95 286.89 274.233 286.89 272C286.89 269.4 287.873 267.35 289.84 265.85C291.84 264.35 294.607 263.6 298.14 263.6C301.573 263.6 304.29 264.35 306.29 265.85C308.29 267.317 309.607 269.417 310.24 272.15H300.69C300.523 271.55 300.223 271.1 299.79 270.8C299.39 270.467 298.857 270.3 298.19 270.3C297.59 270.3 297.09 270.417 296.69 270.65C296.29 270.883 296.09 271.217 296.09 271.65C296.09 272.05 296.257 272.35 296.59 272.55C296.923 272.717 297.507 272.9 298.34 273.1L302.49 274.1C304.79 274.667 306.69 275.533 308.19 276.7C309.723 277.833 310.49 279.683 310.49 282.25C310.49 285.183 309.39 287.317 307.19 288.65C305.023 289.95 302.307 290.6 299.04 290.6Z" fill="url(#paint5_linear_18_13)"/>
<rect x="116" y="203" width="30" height="39" fill="url(#paint6_linear_18_13)"/>
<rect x="165" y="166" width="30" height="75" fill="url(#paint7_linear_18_13)"/>
<rect x="213" y="108" width="30" height="134" fill="url(#paint8_linear_18_13)"/>
<g filter="url(#filter0_d_18_13)">
<path d="M141.959 54.6392C141.805 54.0118 141.562 53.4614 141.231 52.9879C140.899 52.5026 140.485 52.0942 139.988 51.7628C139.503 51.4195 138.934 51.165 138.283 50.9993C137.644 50.8217 136.94 50.733 136.17 50.733C134.513 50.733 133.099 51.1295 131.927 51.9226C130.767 52.7157 129.879 53.858 129.263 55.3494C128.66 56.8409 128.358 58.6402 128.358 60.7472C128.358 62.8778 128.648 64.7008 129.228 66.2159C129.808 67.7311 130.672 68.8911 131.82 69.696C132.969 70.5009 134.395 70.9034 136.099 70.9034C137.603 70.9034 138.852 70.6844 139.846 70.2464C140.852 69.8085 141.604 69.187 142.101 68.3821C142.598 67.5772 142.847 66.6302 142.847 65.5412L144.551 65.7188H136.241V58.6875H152.364V63.7301C152.364 67.0445 151.659 69.8795 150.251 72.2351C148.854 74.5788 146.924 76.3781 144.462 77.6328C142.012 78.8757 139.201 79.4972 136.028 79.4972C132.489 79.4972 129.382 78.7455 126.707 77.2422C124.031 75.7389 121.942 73.5964 120.439 70.8146C118.947 68.0329 118.202 64.7244 118.202 60.8892C118.202 57.8826 118.657 55.2192 119.569 52.8991C120.492 50.5791 121.771 48.62 123.404 47.022C125.038 45.4122 126.926 44.1989 129.068 43.3821C131.211 42.5535 133.507 42.1392 135.957 42.1392C138.112 42.1392 140.112 42.447 141.959 43.0625C143.817 43.6662 145.457 44.5303 146.877 45.6548C148.309 46.7675 149.464 48.0874 150.339 49.6143C151.215 51.1413 151.748 52.8163 151.938 54.6392H141.959ZM159.361 50.5909V42.6364H190.966V50.5909H180.029V79H170.299V50.5909H159.361ZM199.682 42.6364H211.969L220.42 63.233H220.846L229.298 42.6364H241.585V79H231.926V57.9773H231.642L223.545 78.7159H217.721L209.625 57.8352H209.341V79H199.682V42.6364Z" fill="url(#paint9_linear_18_13)"/>
</g>
<defs>
<filter id="filter0_d_18_13" x="114.202" y="42.1392" width="131.383" height="45.358" filterUnits="userSpaceOnUse" color-interpolation-filters="sRGB">
<feFlood flood-opacity="0" result="BackgroundImageFix"/>
<feColorMatrix in="SourceAlpha" type="matrix" values="0 0 0 0 0 0 0 0 0 0 0 0 0 0 0 0 0 0 127 0" result="hardAlpha"/>
<feOffset dy="4"/>
<feGaussianBlur stdDeviation="2"/>
<feComposite in2="hardAlpha" operator="out"/>
<feColorMatrix type="matrix" values="0 0 0 0 0 0 0 0 0 0 0 0 0 0 0 0 0 0 0.25 0"/>
<feBlend mode="normal" in2="BackgroundImageFix" result="effect1_dropShadow_18_13"/>
<feBlend mode="normal" in="SourceGraphic" in2="effect1_dropShadow_18_13" result="shape"/>
</filter>
<linearGradient id="paint0_linear_18_13" x1="422.1" y1="463" x2="-45.0053" y2="459.76" gradientUnits="userSpaceOnUse">
<stop stop-color="#E3C512"/>
<stop offset="0.262019" stop-color="#B79A19"/>
<stop offset="0.771635" stop-color="#F1D950"/>
</linearGradient>
<linearGradient id="paint1_linear_18_13" x1="381.5" y1="204" x2="-10" y2="388" gradientUnits="userSpaceOnUse">
<stop offset="0.175481" stop-color="#764F01"/>
<stop offset="0.858173" stop-color="#493002"/>
</linearGradient>
<linearGradient id="paint2_linear_18_13" x1="401.925" y1="446.881" x2="-26.2555" y2="443.963" gradientUnits="userSpaceOnUse">
<stop stop-color="#E3C512"/>
<stop offset="0.127404" stop-color="#B79A19"/>
<stop offset="0.911058" stop-color="#F1D950"/>
</linearGradient>
<linearGradient id="paint3_linear_18_13" x1="0" y1="340.5" x2="360" y2="340.5" gradientUnits="userSpaceOnUse">
<stop stop-color="#493002"/>
<stop offset="0.497596" stop-color="#614001"/>
<stop offset="0.944712" stop-color="#865B00"/>
</linearGradient>
<linearGradient id="paint4_linear_18_13" x1="50" y1="341" x2="310" y2="341" gradientUnits="userSpaceOnUse">
<stop stop-color="#F1D950"/>
<stop offset="0.771635" stop-color="#CAAF2B"/>
<stop offset="0.992788" stop-color="#B79A19"/>
</linearGradient>
<linearGradient id="paint5_linear_18_13" x1="179.5" y1="242" x2="179.5" y2="303" gradientUnits="userSpaceOnUse">
<stop offset="0.112981" stop-color="#493002"/>
<stop offset="0.507212" stop-color="#654401"/>
<stop offset="0.911058" stop-color="#976600"/>
</linearGradient>
<linearGradient id="paint6_linear_18_13" x1="131" y1="203" x2="131" y2="242" gradientUnits="userSpaceOnUse">
<stop offset="0.112981" stop-color="#493002"/>
<stop offset="0.507212" stop-color="#654401"/>
<stop offset="0.911058" stop-color="#976600"/>
</linearGradient>
<linearGradient id="paint7_linear_18_13" x1="180" y1="166" x2="180" y2="241" gradientUnits="userSpaceOnUse">
<stop offset="0.112981" stop-color="#493002"/>
<stop offset="0.507212" stop-color="#654401"/>
<stop offset="0.911058" stop-color="#976600"/>
</linearGradient>
<linearGradient id="paint8_linear_18_13" x1="228" y1="108" x2="228" y2="242" gradientUnits="userSpaceOnUse">
<stop offset="0.112981" stop-color="#493002"/>
<stop offset="0.507212" stop-color="#654401"/>
<stop offset="0.911058" stop-color="#976600"/>
</linearGradient>
<linearGradient id="paint9_linear_18_13" x1="180" y1="30" x2="180" y2="91" gradientUnits="userSpaceOnUse">
<stop offset="0.112981" stop-color="#493002"/>
<stop offset="0.507212" stop-color="#654401"/>
<stop offset="0.911058" stop-color="#976600"/>
</linearGradient>
<clipPath id="clip0_18_13">
<rect width="25" height="25" fill="white" transform="translate(311.678 311) rotate(45)"/>
</clipPath>
</defs>
</svg>
